<?xml version="1.0" encoding="UTF-8"?>
<svg width="35px" height="35px" viewBox="0 0 35 35" version="1.1" xmlns="http://www.w3.org/2000/svg" xmlns:xlink="http://www.w3.org/1999/xlink">
    <!-- Generator: Sketch 53.2 (72643) - https://sketchapp.com -->
    <title>Shape</title>
    <desc>Created with Sketch.</desc>
    <g id="UX" stroke="none" stroke-width="1" fill="none" fill-rule="evenodd">
        <g id="DISPATCH-PAGE" transform="translate(-12.000000, -6.000000)" fill="#FFFFFF" fill-rule="nonzero">
            <path d="M44.9082475,24.4428726 L46.4309358,24.4428726 L46.4082091,24.6475407 C46.0900354,28.7409034 44.3173536,32.584116 41.4083372,35.4722107 C38.1584205,38.7241599 33.8176227,40.5206913 29.2268312,40.5206913 C24.6133131,40.5206913 20.295242,38.7241599 17.0453252,35.4722107 C13.7954085,32.2202616 12,27.8994899 12,23.2830865 C12,18.6666832 13.7954085,14.3459115 17.0453252,11.0939624 C20.295242,7.84201317 24.6360398,6.04548181 29.2268312,6.04548181 C33.8176227,6.04548181 38.1584205,7.84201317 41.4083372,11.0939624 C44.3400803,14.0275389 46.1127621,17.9389743 46.4082091,22.0778187 L46.4309358,22.2824868 L44.9082475,22.2824868 L44.8855208,22.1005596 C44.6128006,18.3483105 42.9764789,14.8234705 40.3401828,12.1627848 C37.3629864,9.18372647 33.4312689,7.54638143 29.2268312,7.54638143 C25.0223935,7.54638143 21.0906761,9.18372647 18.1134797,12.1627848 C15.1362833,15.1418431 13.4999616,19.0760194 13.4999616,23.2830865 C13.4999616,27.4901537 15.1362833,31.4243299 18.1134797,34.4033883 C21.0906761,37.3824466 25.0223935,39.0197917 29.2268312,39.0197917 C33.4312689,39.0197917 37.3629864,37.3824466 40.3401828,34.4033883 C42.9537522,31.7881844 44.5673472,28.3088262 44.8855208,24.6247998 L44.9082475,24.4428726 Z M39.8629223,26.2166631 C40.0674625,25.7163632 40.181096,25.1933224 40.181096,24.6475407 C40.181096,24.1017591 40.0674625,23.5787183 39.8629223,23.0784184 C39.6583821,22.5781185 39.3629351,22.1460414 38.9765814,21.759446 C38.5902276,21.3728507 38.1356938,21.0772189 37.6584333,20.8725508 C37.1584461,20.6678827 36.6357323,20.5541781 36.0902917,20.5541781 C33.7721693,20.5541781 32.181301,22.6690822 30.4767992,24.9204316 C28.4995771,27.5356355 26.454175,30.2645439 22.9542647,30.2645439 C22.1361039,30.2645439 21.3406697,30.1053576 20.5906889,29.7869849 C19.8407081,29.4686123 19.1589074,29.0137942 18.5907402,28.4452716 C18.0225729,27.876749 17.5680391,27.1945219 17.2498655,26.4440721 C16.9316918,25.6936223 16.772605,24.8976907 16.772605,24.0790182 C16.772605,22.4189322 17.4089523,20.8725508 18.5907402,19.7127647 C19.1589074,19.1442421 19.8407081,18.6894241 20.5906889,18.3710514 C21.2724896,18.0754197 21.9997437,17.9389743 22.7497245,17.9162334 C22.9088113,17.9162334 23.0224448,17.8252697 23.0906249,17.6888243 C23.1588049,17.529638 23.226985,17.3704517 23.3178918,17.2340063 C23.522432,16.8474109 23.7724256,16.4835564 24.0451459,16.1424429 C24.3178661,15.8013293 24.6360398,15.4829567 24.9769402,15.2100659 C25.3178405,14.937175 25.6814676,14.6870251 26.0678213,14.459616 C26.4769017,14.232207 26.8859821,14.0502798 27.3177893,13.9365753 C27.7495964,13.8001299 28.2041302,13.7091662 28.658664,13.6636844 C29.1131978,13.6182026 29.5677316,13.6182026 30.0222654,13.6636844 C30.4767992,13.7091662 30.931333,13.8001299 31.3631401,13.9365753 C31.7949472,14.0730207 32.2040277,14.232207 32.5903814,14.4368751 C32.9767351,14.6415433 33.3403622,14.8916932 33.6812625,15.1645841 C34.0221629,15.4374749 34.3403366,15.7558475 34.6130568,16.0969611 C34.8857771,16.4380746 35.1357707,16.8019291 35.3630376,17.1885244 C35.5903045,17.5978607 35.772118,18.007197 35.8857515,18.4392741 C35.9084782,18.5302377 35.9539316,18.6439423 35.9766583,18.7576468 C36.0221116,18.9168331 36.1584718,19.0305376 36.3402853,19.0532785 C36.9766326,19.0760194 37.61298,19.2352058 38.2266006,19.4626148 C38.9084013,19.7582465 39.5220219,20.1675828 40.0447358,20.6906236 C40.5674497,21.2136643 40.9765301,21.8276687 41.2719771,22.5098958 C41.5446974,23.1921229 41.7037842,23.9198318 41.7037842,24.6475407 C41.7037842,25.3979906 41.5674241,26.1029586 41.2719771,26.7851857 C40.9765301,27.4674128 40.5674497,28.0814172 40.0447358,28.6044579 C38.9765814,29.6732804 37.5675266,30.241803 36.067565,30.241803 L31.0449665,30.241803 C30.635886,30.241803 30.2949857,29.9006894 30.2949857,29.4913532 C30.2949857,29.0820169 30.635886,28.7409034 31.0449665,28.7409034 L36.0902917,28.7409034 C37.1811728,28.7409034 38.2038739,28.3088262 38.9765814,27.5356355 C39.3629351,27.1490401 39.6583821,26.716963 39.8629223,26.2166631 Z M29.2722846,24.0107955 C30.7722462,22.009596 32.2040277,20.122101 34.2494298,19.3716512 C34.4312433,19.3034285 34.5448768,19.0987603 34.4766967,18.8940922 L34.4766967,18.8713513 C34.3630632,18.5302377 34.2267031,18.2118651 34.0676163,17.9162334 C33.9085294,17.6206016 33.7039892,17.3249699 33.499449,17.0748199 C33.2949088,16.82467 33.0449152,16.5745201 32.7721949,16.347111 C32.4994746,16.119702 32.2040277,15.9377748 31.9085807,15.7785884 C31.6131337,15.6194021 31.2949601,15.4829567 30.9540597,15.3919931 C30.6131593,15.2782886 30.272259,15.2100659 29.9086319,15.187325 C29.5450049,15.1418431 29.2041045,15.1418431 28.8404775,15.187325 C28.4768505,15.2328068 28.1359501,15.3010295 27.7950498,15.3919931 C27.4541494,15.5056976 27.1359757,15.642143 26.8178021,15.8013293 C26.5223551,15.9605157 26.2269081,16.1651838 25.9769145,16.3698519 C25.7269209,16.5745201 25.4769273,16.82467 25.2496604,17.0975608 C25.0905736,17.2794881 24.9542135,17.4841562 24.8178533,17.7115652 C24.7496733,17.8252697 24.7496733,17.9162334 24.7723999,18.0299379 C24.8178533,18.1436424 24.8860334,18.2118651 24.9996668,18.2573469 C25.1133003,18.3028287 25.2042071,18.3255696 25.3178405,18.3710514 C25.8405544,18.5984605 26.3405416,18.8713513 26.7723487,19.2352058 C27.045069,19.4398739 27.113249,19.6900238 27.113249,19.8492101 C27.1359757,20.0538783 27.045069,20.2585464 26.8859821,20.4177327 C26.6132619,20.6906236 26.1814547,20.7133645 25.8632811,20.4632145 C25.5223807,20.1903237 25.136027,19.9401738 24.7269466,19.7809874 C24.1587793,19.5535784 23.5678854,19.4398739 22.9542647,19.4398739 C22.3406441,19.4398739 21.7270234,19.5535784 21.1815829,19.7809874 C20.6134156,20.0083965 20.1134284,20.34951 19.6816213,20.8043281 C18.7952804,21.6912233 18.3180199,22.8510094 18.3180199,24.1017591 C18.3180199,24.7157635 18.4316534,25.3297679 18.6589203,25.8755495 C18.8861872,26.4440721 19.2270875,26.944372 19.6816213,27.3764492 C20.1134284,27.8085263 20.6361423,28.1496399 21.1815829,28.3997898 C21.7497501,28.6271988 22.3406441,28.7409034 22.9542647,28.7409034 C25.6814676,28.7409034 27.4996028,26.3303676 29.2722846,24.0107955 Z" id="Shape"></path>
        </g>
    </g>
</svg>