<?xml version="1.0" encoding="UTF-8"?>
<svg width="163px" height="42px" viewBox="0 0 163 42" version="1.1" xmlns="http://www.w3.org/2000/svg" xmlns:xlink="http://www.w3.org/1999/xlink">
    <!-- Generator: Sketch 53.2 (72643) - https://sketchapp.com -->
    <title>Icons/Icons/Your Logo Here</title>
    <desc>Created with Sketch.</desc>
    <g id="UX" stroke="none" stroke-width="1" fill="none" fill-rule="evenodd">
        <g id="Login" transform="translate(-589.000000, -367.000000)">
            <g id="Components/Signups/Login-#1" transform="translate(560.000000, 345.000000)">
                <g id="Icons/Icons/Your-Logo-Here" transform="translate(20.000000, 18.000000)">
                    <g id="Logo" transform="translate(9.140625, 4.687500)" fill="#0156FF">
                        <path d="M37.6094258,21.6045079 L39.3496409,21.6045079 L39.3236675,21.844262 C38.9600405,26.6393439 36.9341184,31.1413931 33.6095283,34.5245897 C29.8953377,38.3340159 24.9344259,40.4385241 19.6878071,40.4385241 C14.415215,40.4385241 9.48027652,38.3340159 5.76608599,34.5245897 C2.05189547,30.7151635 0,25.6536882 0,20.2459014 C0,14.8381146 2.05189547,9.77663922 5.76608599,5.96721304 C9.48027652,2.15778686 14.4411883,0.0532786879 19.6878071,0.0532786879 C24.9344259,0.0532786879 29.8953377,2.15778686 33.6095283,5.96721304 C36.9600917,9.40368841 38.9860139,13.9856556 39.3236675,18.8340162 L39.3496409,19.0737703 L37.6094258,19.0737703 L37.5834524,18.8606555 C37.2717721,14.4651638 35.4016901,10.3360654 32.3887803,7.2192622 C28.9862701,3.72950815 24.4928788,1.81147539 19.6878071,1.81147539 C14.8827355,1.81147539 10.3893441,3.72950815 6.98683393,7.2192622 C3.58432373,10.7090163 1.71424178,15.3176228 1.71424178,20.2459014 C1.71424178,25.17418 3.58432373,29.7827865 6.98683393,33.2725406 C10.3893441,36.7622946 14.8827355,38.6803274 19.6878071,38.6803274 C24.4928788,38.6803274 28.9862701,36.7622946 32.3887803,33.2725406 C35.3757168,30.209016 37.2198254,26.1331964 37.5834524,21.8176227 L37.6094258,21.6045079 Z M31.8433398,23.6823768 C32.0771,23.0963112 32.2069668,22.4836063 32.2069668,21.844262 C32.2069668,21.2049178 32.0771,20.5922129 31.8433398,20.0061473 C31.6095795,19.4200817 31.2719258,18.9139342 30.8303787,18.4610653 C30.3888316,18.0081965 29.8693644,17.661885 29.3239238,17.4221309 C28.7525099,17.1823768 28.1551226,17.0491801 27.5317619,17.0491801 C24.8824792,17.0491801 23.064344,19.5266391 21.1163419,22.1639341 C18.8566596,25.2274587 16.5190572,28.42418 12.5191597,28.42418 C11.5841187,28.42418 10.6750511,28.2377046 9.8179302,27.8647537 C8.96080931,27.4918029 8.1816085,26.9590161 7.5322745,26.2930325 C6.88294049,25.6270489 6.36347328,24.8278685 5.99984624,23.9487702 C5.63621919,23.0696718 5.45440567,22.1372948 5.45440567,21.1782784 C5.45440567,19.2336063 6.18165976,17.4221309 7.5322745,16.0635244 C8.1816085,15.3975408 8.96080931,14.8647539 9.8179302,14.4918031 C10.597131,14.1454916 11.4282785,13.9856556 12.2853994,13.9590162 C12.467213,13.9590162 12.5970798,13.8524588 12.6749998,13.6926228 C12.7529199,13.5061474 12.83084,13.319672 12.9347334,13.1598359 C13.1684937,12.7069671 13.4542007,12.2807376 13.765881,11.8811474 C14.0775613,11.4815572 14.4411883,11.1086064 14.8307887,10.7889343 C15.2203892,10.4692622 15.6359629,10.1762294 16.07751,9.90983594 C16.5450305,9.6434425 17.012551,9.43032775 17.5060449,9.29713103 C17.9995387,9.13729497 18.5190059,9.03073759 19.0384731,8.9774589 C19.5579403,8.92418022 20.0774075,8.92418022 20.5968747,8.9774589 C21.1163419,9.03073759 21.6358092,9.13729497 22.129303,9.29713103 C22.6227968,9.45696709 23.0903173,9.6434425 23.5318645,9.8831966 C23.9734116,10.1229507 24.3889853,10.4159835 24.7785858,10.7356556 C25.1681862,11.0553277 25.5318132,11.4282785 25.8434935,11.8278687 C26.1551739,12.2274589 26.4408808,12.6536884 26.7006144,13.1065572 C26.960348,13.5860654 27.1681349,14.0655736 27.2980017,14.5717211 C27.3239751,14.6782785 27.3759218,14.8114752 27.4018951,14.9446719 C27.4538419,15.1311474 27.609682,15.2643441 27.8174689,15.2909834 C28.544723,15.3176228 29.2719771,15.5040982 29.9732578,15.7704916 C30.7524586,16.1168031 31.4537394,16.5963113 32.0511266,17.2090162 C32.6485139,17.8217211 33.1160344,18.5409834 33.4536881,19.3401637 C33.7653684,20.139344 33.947182,20.991803 33.947182,21.844262 C33.947182,22.7233604 33.7913418,23.54918 33.4536881,24.3483604 C33.1160344,25.1475407 32.6485139,25.866803 32.0511266,26.4795079 C30.8303787,27.731557 29.2200304,28.3975406 27.5057886,28.3975406 L21.765676,28.3975406 C21.2981555,28.3975406 20.9085551,27.9979505 20.9085551,27.5184423 C20.9085551,27.0389341 21.2981555,26.6393439 21.765676,26.6393439 L27.5317619,26.6393439 C28.7784832,26.6393439 29.9472845,26.1331964 30.8303787,25.2274587 C31.2719258,24.7745899 31.6095795,24.2684423 31.8433398,23.6823768 Z M19.7397539,21.0983604 C21.4539956,18.7540981 23.0903173,16.5430326 25.4279198,15.6639342 C25.6357066,15.5840162 25.7655734,15.3442621 25.6876534,15.104508 L25.6876534,15.0778687 C25.5577866,14.6782785 25.4019464,14.3053277 25.2201329,13.9590162 C25.0383194,13.6127047 24.8045591,13.2663933 24.5707989,12.9733605 C24.3370386,12.6803277 24.0513317,12.3872949 23.7396513,12.1209015 C23.427971,11.854508 23.0903173,11.6413933 22.7526636,11.4549179 C22.41501,11.2684425 22.0513829,11.1086064 21.6617825,11.002049 C21.2721821,10.8688523 20.8825817,10.7889343 20.4670079,10.7622949 C20.0514342,10.7090163 19.6618338,10.7090163 19.24626,10.7622949 C18.8306862,10.8155736 18.4410858,10.8954917 18.0514854,11.002049 C17.661885,11.1352458 17.298258,11.2950818 16.9346309,11.4815572 C16.5969773,11.6680326 16.2593236,11.9077867 15.9736166,12.1475408 C15.6879096,12.3872949 15.4022027,12.6803277 15.1424691,12.9999998 C14.9606555,13.2131146 14.8048154,13.4528687 14.6489752,13.7192621 C14.5710551,13.8524588 14.5710551,13.9590162 14.5970285,14.0922129 C14.6489752,14.2254097 14.7268953,14.3053277 14.8567621,14.3586064 C14.9866289,14.4118851 15.0905224,14.4385244 15.2203892,14.4918031 C15.8177764,14.7581965 16.3891904,15.0778687 16.8826842,15.5040982 C17.1943645,15.7438523 17.2722846,16.036885 17.2722846,16.2233605 C17.298258,16.4631145 17.1943645,16.7028686 17.012551,16.8893441 C16.7008707,17.2090162 16.2073768,17.2356555 15.8437498,16.9426227 C15.4541494,16.6229506 15.0126023,16.3299178 14.5450818,16.1434424 C13.8957478,15.877049 13.2204404,15.7438523 12.5191597,15.7438523 C11.817879,15.7438523 11.1165982,15.877049 10.4932376,16.1434424 C9.84390356,16.4098359 9.27248964,16.809426 8.77899579,17.3422129 C7.76603474,18.3811473 7.22059417,19.7397539 7.22059417,21.2049178 C7.22059417,21.9241801 7.35046097,22.6434423 7.61019458,23.2827866 C7.86992818,23.9487702 8.25952858,24.5348358 8.77899579,25.0409833 C9.27248964,25.5471308 9.86987693,25.946721 10.4932376,26.2397538 C11.1425716,26.5061472 11.817879,26.6393439 12.5191597,26.6393439 C15.6359629,26.6393439 17.7138317,23.8155735 19.7397539,21.0983604 Z" id="Shape" fill-rule="nonzero"></path>
                    </g>
                    <g id="Logo" transform="translate(55.859375, 10.416667)">
                        <g id="Group-2" fill-rule="nonzero">
                            <path d="M7.09404424,7.78269113 L8.30608727,7.37585151 C7.66701003,5.72589084 6.27866984,4.66358739 4.339401,4.66358739 C2.22383498,4.66358739 0.593086184,6.04232165 0.593086184,7.98611094 C0.593086184,9.4326518 1.45253488,10.6983751 3.59013803,11.4668499 L5.00051537,11.9640983 C6.47700415,12.4839489 7.40256428,13.162015 7.40256428,14.518147 C7.40256428,16.0324945 5.9260755,16.8461737 4.53773531,16.8461737 C3.03920938,16.8461737 1.71698063,15.9646879 1.29827485,14.3825338 L0.0862318274,14.7215668 C0.526974746,16.8687759 2.40013215,18.111897 4.53773531,18.111897 C6.58718988,18.111897 8.85701592,16.9139803 8.85701592,14.4955448 C8.85701592,12.3257335 7.38052714,11.4894521 5.17681254,10.6757729 L4.00884381,10.246331 C2.53235503,9.72648041 2.02550067,8.95800558 2.02550067,7.96350873 C2.02550067,6.81079648 2.9510608,5.95191285 4.36143814,5.95191285 C5.6836669,5.92931065 6.58718988,6.67518328 7.09404424,7.78269113 Z M16.6361284,4.66358739 C13.7933366,4.66358739 10.2673933,6.92380749 10.2673933,11.3990433 C10.2673933,15.8516769 13.7933366,18.111897 16.6361284,18.111897 C18.8618802,18.111897 20.7130004,16.9365825 21.550412,15.1058042 L21.550412,17.8632728 L23.0269008,17.8632728 L23.0269008,4.8896094 L21.550412,4.8896094 L21.550412,7.64707792 C20.7130004,5.81629964 18.8618802,4.66358739 16.6361284,4.66358739 Z M16.7463142,6.01971945 C19.1042888,6.01971945 21.6165234,7.71488452 21.6165234,11.3764411 C21.6165234,15.0153954 19.1042888,16.7105605 16.7463142,16.7105605 C14.4764881,16.7105605 11.7218449,14.970191 11.7218449,11.3764411 C11.7218449,7.78269113 14.4985253,6.01971945 16.7463142,6.01971945 Z M40.5023575,4.68618959 C37.9680857,4.68618959 36.4254855,6.56217227 35.9627054,8.07651974 C35.2354796,5.63548203 33.2080622,4.68618959 31.5552762,4.68618959 C28.7345216,4.68618959 27.5004414,7.1046251 27.3682185,8.12172414 L27.3682185,4.8896094 L25.8917297,4.8896094 L25.8917297,17.8632728 L27.3682185,17.8632728 L27.3682185,10.020309 C27.6547014,8.25733735 28.8667444,6.06492385 31.3128676,6.06492385 C33.0978765,6.06492385 34.7726996,7.2628405 34.7726996,10.0429112 L34.7726996,17.8406706 L36.2491883,17.8406706 L36.2491883,10.020309 C36.5797455,8.00871314 37.9240114,6.06492385 40.2599489,6.06492385 C42.1551434,6.06492385 43.6316322,7.2628405 43.6316322,10.0429112 L43.6316322,17.8406706 L45.108121,17.8406706 L45.108121,10.13332 C45.108121,6.08752605 42.6840349,4.68618959 40.5023575,4.68618959 Z M53.8127937,7.78269113 L55.0248367,7.37585151 C54.3857594,5.72589084 52.9974193,4.66358739 51.0581504,4.66358739 C48.9425844,4.66358739 47.3118356,6.04232165 47.3118356,7.98611094 C47.3118356,9.4326518 48.1712843,10.6983751 50.3088874,11.4668499 L51.7192648,11.9640983 C53.1957536,12.4839489 54.1213137,13.162015 54.1213137,14.518147 C54.1213137,16.0324945 52.6448249,16.8461737 51.2564847,16.8461737 C49.7579588,16.8461737 48.43573,15.9646879 48.0170243,14.3825338 L46.8049812,14.7215668 C47.2457242,16.8687759 49.1188816,18.111897 51.2564847,18.111897 C53.3059393,18.111897 55.5757653,16.9139803 55.5757653,14.4955448 C55.5757653,12.3257335 54.0992766,11.4894521 51.895562,10.6757729 L50.7275932,10.246331 C49.2511044,9.72648041 48.7442501,8.95800558 48.7442501,7.96350873 C48.7442501,6.81079648 49.6698102,5.95191285 51.0801876,5.95191285 C52.4024163,5.92931065 53.3059393,6.67518328 53.8127937,7.78269113 Z M63.6413607,4.66358739 C60.7324575,4.66358739 57.184477,6.92380749 57.184477,11.3990433 C57.184477,15.8516769 60.7324575,18.111897 63.6413607,18.111897 C65.9111868,18.111897 67.9165671,17.0043891 68.9963872,14.9249866 L67.7843442,14.4277382 C66.9248955,15.9194835 65.4263696,16.7557649 63.6413607,16.7557649 C61.3715347,16.7557649 58.6389286,15.0153954 58.6389286,11.4216455 C58.6389286,7.80529333 61.3935719,6.06492385 63.6413607,6.06492385 C65.4263696,6.06492385 66.9248955,6.87860309 67.7843442,8.39295055 L68.9963872,7.89570213 C67.9165671,5.74849304 65.9111868,4.66358739 63.6413607,4.66358739 Z M72.6325163,0.2109538 L71.1560275,0.2109538 L71.1560275,17.8406706 L72.6325163,17.8406706 L72.6325163,0.2109538 Z M81.3371889,4.66358739 C78.47236,4.66358739 74.9243795,6.92380749 74.9243795,11.3764411 C74.9243795,15.8742791 78.47236,18.111897 81.3371889,18.111897 C84.2020179,18.111897 87.7499984,15.8742791 87.7499984,11.3764411 C87.7499984,6.92380749 84.2020179,4.66358739 81.3371889,4.66358739 Z M81.3371889,6.01971945 C83.5409035,6.01971945 86.2955468,7.76008893 86.2955468,11.3538389 C86.2955468,14.970191 83.5409035,16.7105605 81.3371889,16.7105605 C79.1334743,16.7105605 76.3788311,14.970191 76.3788311,11.3538389 C76.3788311,7.78269113 79.1334743,6.01971945 81.3371889,6.01971945 Z M94.5374394,18.0440904 C97.4022683,18.0440904 99.01098,15.6030527 99.2533886,14.631158 L99.2533886,17.8406706 L100.729877,17.8406706 L100.729877,4.8670072 L99.2533886,4.8670072 L99.2533886,12.6421643 C98.9448686,14.405136 97.203934,16.6653561 94.8018851,16.6653561 C92.7524305,16.6653561 91.165756,15.3544285 91.165756,12.4161423 L91.165756,4.8670072 L89.7113044,4.8670072 L89.7113044,12.4161423 C89.6892673,16.4167319 92.0472419,18.0440904 94.5374394,18.0440904 Z M114.304759,0.2109538 L114.304759,7.64707792 C113.467348,5.81629964 111.638265,4.66358739 109.390476,4.66358739 C106.547684,4.66358739 103.021741,6.92380749 103.021741,11.3990433 C103.021741,15.8516769 106.547684,18.111897 109.390476,18.111897 C111.616227,18.111897 113.467348,16.9365825 114.304759,15.1058042 L114.304759,17.8632728 L115.781248,17.8632728 L115.781248,8.32514395 L115.781248,0.256158202 L114.304759,0.256158202 L114.304759,0.2109538 Z M109.500661,16.7331627 C107.230835,16.7331627 104.476192,14.9927932 104.476192,11.3990433 C104.476192,7.78269113 107.252873,6.04232165 109.500661,6.04232165 C111.858636,6.04232165 114.370871,7.73748672 114.370871,11.3990433 C114.370871,15.0379976 111.858636,16.7331627 109.500661,16.7331627 Z" id="Shape" fill="#242424"></path>
                            <g id="Text" transform="translate(1.015625, 23.355608)" fill="#5A5A5A">
                                <path d="M0,4.40742925 L0.440742925,3.78586871 C0.771300118,4.12490173 1.21204304,4.40742925 1.81806456,4.40742925 C2.47917895,4.40742925 2.69955041,4.06839623 2.69955041,3.78586871 C2.69955041,2.82527516 0.110185731,3.44683569 0.110185731,1.7516706 C0.110185731,1.01709906 0.771300118,0.395538522 1.70787883,0.395538522 C2.42408608,0.395538522 2.97501474,0.621560535 3.3606648,1.01709906 L2.91992188,1.58215409 C2.58936468,1.24312107 2.09352889,1.07360456 1.65278597,1.07360456 C1.21204304,1.07360456 0.881485849,1.29962657 0.881485849,1.63865959 C0.881485849,2.48624214 3.47085053,1.97769261 3.47085053,3.6728577 C3.47085053,4.40742925 2.97501474,5.08549528 1.7629717,5.08549528 C0.99167158,5.14200079 0.385650059,4.80296777 0,4.40742925 Z" id="Shape"></path>
                                <polygon id="Shape" points="4.51761498 5.02898978 4.51761498 0.452044025 7.54772258 0.452044025 7.54772258 1.13011006 5.28891509 1.13011006 5.28891509 2.31672563 7.49262972 2.31672563 7.49262972 2.99479167 5.28891509 2.99479167 5.28891509 4.23791274 7.54772258 4.23791274 7.54772258 4.91597877 4.51761498 4.91597877"></polygon>
                                <path d="M8.42920843,2.76876965 C8.42920843,1.35613208 9.42088001,0.395538522 10.7431088,0.395538522 C11.6245946,0.395538522 12.1755233,0.847582547 12.5060805,1.41263758 L11.8449661,1.7516706 C11.6245946,1.35613208 11.1838517,1.07360456 10.7431088,1.07360456 C9.86162294,1.07360456 9.20050855,1.7516706 9.20050855,2.71226415 C9.20050855,3.6728577 9.86162294,4.35092374 10.7431088,4.35092374 C11.2389446,4.35092374 11.6245946,4.06839623 11.8449661,3.6728577 L12.5060805,4.01189072 C12.1755233,4.57694575 11.6245946,5.02898978 10.7431088,5.02898978 C9.42088001,5.14200079 8.42920843,4.18140723 8.42920843,2.76876965 Z" id="Shape"></path>
                                <path d="M13.3875663,3.22081368 L13.3875663,0.452044025 L14.1588665,0.452044025 L14.1588665,3.16430818 C14.1588665,3.89887972 14.5445165,4.35092374 15.3158166,4.35092374 C16.0320239,4.35092374 16.4727668,3.89887972 16.4727668,3.16430818 L16.4727668,0.452044025 L17.2440669,0.452044025 L17.2440669,3.22081368 C17.2440669,4.35092374 16.6380454,5.08549528 15.3158166,5.08549528 C14.0486807,5.14200079 13.3875663,4.35092374 13.3875663,3.22081368 Z" id="Shape"></path>
                                <path d="M20.9903818,5.02898978 L19.9987102,3.33382469 L19.2274101,3.33382469 L19.2274101,5.02898978 L18.45611,5.02898978 L18.45611,0.452044025 L20.3843603,0.452044025 C21.2658461,0.452044025 21.8167748,1.01709906 21.8167748,1.8646816 C21.8167748,2.65575865 21.320939,3.10780267 20.7700103,3.22081368 L21.8718676,5.02898978 L20.9903818,5.02898978 Z M21.0454746,1.92118711 C21.0454746,1.46914308 20.7149175,1.18661557 20.2741745,1.18661557 L19.2274101,1.18661557 L19.2274101,2.65575865 L20.2741745,2.65575865 C20.7700103,2.65575865 21.0454746,2.37323113 21.0454746,1.92118711 Z" id="Shape"></path>
                                <polygon id="Shape" points="22.9186321 5.02898978 22.9186321 0.452044025 23.6899322 0.452044025 23.6899322 5.02898978"></polygon>
                                <polygon id="Shape" points="25.9487397 5.02898978 25.9487397 1.18661557 24.6265109 1.18661557 24.6265109 0.508549528 28.0973614 0.508549528 28.0973614 1.18661557 26.7751327 1.18661557 26.7751327 5.02898978"></polygon>
                                <polygon id="Shape" points="30.2459832 5.02898978 30.2459832 3.16430818 28.5381044 0.508549528 29.4195902 0.508549528 30.6316333 2.48624214 31.8436763 0.508549528 32.7251621 0.508549528 31.0172833 3.16430818 31.0172833 5.02898978"></polygon>
                                <polygon id="Shape" points="39.336306 5.02898978 39.336306 1.63865959 37.9589844 5.02898978 37.6284272 5.02898978 36.2511055 1.63865959 36.2511055 5.02898978 35.4798054 5.02898978 35.4798054 0.452044025 36.5816627 0.452044025 37.7937058 3.44683569 39.0057488 0.452044025 40.1076061 0.452044025 40.1076061 5.02898978"></polygon>
                                <polygon id="Shape" points="41.3196492 5.02898978 41.3196492 0.452044025 44.3497568 0.452044025 44.3497568 1.13011006 42.0909493 1.13011006 42.0909493 2.31672563 44.2946639 2.31672563 44.2946639 2.99479167 42.0909493 2.99479167 42.0909493 4.23791274 44.3497568 4.23791274 44.3497568 4.91597877 41.3196492 4.91597877"></polygon>
                                <path d="M45.1210569,4.40742925 L45.5617998,3.78586871 C45.892357,4.12490173 46.3330999,4.40742925 46.9391215,4.40742925 C47.6002358,4.40742925 47.8206073,4.06839623 47.8206073,3.78586871 C47.8206073,2.82527516 45.2312426,3.44683569 45.2312426,1.7516706 C45.2312426,1.01709906 45.892357,0.395538522 46.8289357,0.395538522 C47.545143,0.395538522 48.0960716,0.621560535 48.4817217,1.01709906 L48.0409788,1.58215409 C47.7104216,1.24312107 47.2145858,1.07360456 46.7738429,1.07360456 C46.3330999,1.07360456 46.0025427,1.29962657 46.0025427,1.63865959 C46.0025427,2.48624214 48.5919074,1.97769261 48.5919074,3.6728577 C48.5919074,4.40742925 48.0960716,5.08549528 46.8840286,5.08549528 C46.1127285,5.14200079 45.506707,4.80296777 45.1210569,4.40742925 Z" id="Shape"></path>
                                <path d="M49.3632075,4.40742925 L49.8039505,3.78586871 C50.1345077,4.12490173 50.5752506,4.40742925 51.1812721,4.40742925 C51.8423865,4.40742925 52.062758,4.06839623 52.062758,3.78586871 C52.062758,2.82527516 49.4733933,3.44683569 49.4733933,1.7516706 C49.4733933,1.01709906 50.1345077,0.395538522 51.0710864,0.395538522 C51.7872936,0.395538522 52.3382223,0.621560535 52.7238723,1.01709906 L52.2831294,1.58215409 C51.9525722,1.24312107 51.4567364,1.07360456 51.0159935,1.07360456 C50.5752506,1.07360456 50.2446934,1.29962657 50.2446934,1.63865959 C50.2446934,2.48624214 52.8340581,1.97769261 52.8340581,3.6728577 C52.8340581,4.40742925 52.3382223,5.08549528 51.1261792,5.08549528 C50.3548791,5.14200079 49.7488576,4.80296777 49.3632075,4.40742925 Z" id="Shape"></path>
                                <path d="M56.9109301,5.02898978 L56.5803729,4.18140723 L54.5419369,4.18140723 L54.2113797,5.02898978 L53.3298939,5.02898978 L55.0928656,0.452044025 L56.0845371,0.452044025 L57.8475088,5.02898978 L56.9109301,5.02898978 Z M55.5336085,1.29962657 L54.7623084,3.44683569 L56.3600015,3.44683569 L55.5336085,1.29962657 Z" id="Shape"></path>
                                <path d="M58.1229732,2.76876965 C58.1229732,1.35613208 59.1697376,0.395538522 60.4368735,0.395538522 C61.3183594,0.395538522 61.869288,0.791077044 62.1998452,1.35613208 L61.5387308,1.7516706 C61.3183594,1.41263758 60.8776165,1.13011006 60.3817807,1.13011006 C59.5002948,1.13011006 58.8391804,1.8081761 58.8391804,2.76876965 C58.8391804,3.72936321 59.5002948,4.40742925 60.3817807,4.40742925 C60.8225236,4.40742925 61.2081736,4.18140723 61.4285451,4.01189072 L61.4285451,3.27731918 L60.1063163,3.27731918 L60.1063163,2.59925314 L62.1998452,2.59925314 L62.1998452,4.29441824 C61.7591023,4.80296777 61.1530808,5.14200079 60.3817807,5.14200079 C59.1697376,5.14200079 58.1229732,4.18140723 58.1229732,2.76876965 Z" id="Shape"></path>
                                <polygon id="Shape" points="63.3567954 5.02898978 63.3567954 0.452044025 64.1280955 0.452044025 64.1280955 5.02898978"></polygon>
                                <polygon id="Shape" points="68.425339 5.02898978 66.1114387 1.8081761 66.1114387 5.02898978 65.3401386 5.02898978 65.3401386 0.452044025 66.1114387 0.452044025 68.3702462 3.6163522 68.3702462 0.452044025 69.1415463 0.452044025 69.1415463 5.02898978"></polygon>
                                <path d="M70.1883107,2.76876965 C70.1883107,1.35613208 71.2350752,0.395538522 72.5022111,0.395538522 C73.3836969,0.395538522 73.9346256,0.791077044 74.2651828,1.35613208 L73.6040684,1.7516706 C73.3836969,1.41263758 72.942954,1.13011006 72.4471182,1.13011006 C71.5656324,1.13011006 70.904518,1.8081761 70.904518,2.76876965 C70.904518,3.72936321 71.5656324,4.40742925 72.4471182,4.40742925 C72.8878611,4.40742925 73.2735112,4.18140723 73.4938827,4.01189072 L73.4938827,3.27731918 L72.1716539,3.27731918 L72.1716539,2.59925314 L74.2651828,2.59925314 L74.2651828,4.29441824 C73.8244399,4.80296777 73.2184183,5.14200079 72.4471182,5.14200079 C71.2350752,5.14200079 70.1883107,4.18140723 70.1883107,2.76876965 Z" id="Shape"></path>
                                <path d="M77.1300118,4.40742925 L77.5707547,3.78586871 C77.9013119,4.12490173 78.3420548,4.40742925 78.9480764,4.40742925 C79.6091907,4.40742925 79.8295622,4.06839623 79.8295622,3.78586871 C79.8295622,2.82527516 77.2401975,3.44683569 77.2401975,1.7516706 C77.2401975,1.01709906 77.9013119,0.395538522 78.8378906,0.395538522 C79.5540979,0.395538522 80.1050265,0.621560535 80.4906766,1.01709906 L80.0499337,1.58215409 C79.7193765,1.24312107 79.2235407,1.07360456 78.7827978,1.07360456 C78.3420548,1.07360456 78.0114976,1.29962657 78.0114976,1.63865959 C78.0114976,2.48624214 80.6008623,1.97769261 80.6008623,3.6728577 C80.6008623,4.40742925 80.1050265,5.08549528 78.8929835,5.08549528 C78.0665905,5.14200079 77.5156619,4.80296777 77.1300118,4.40742925 Z" id="Shape"></path>
                                <polygon id="Shape" points="81.5925339 5.02898978 81.5925339 0.452044025 84.6226415 0.452044025 84.6226415 1.13011006 82.363834 1.13011006 82.363834 2.31672563 84.5675486 2.31672563 84.5675486 2.99479167 82.363834 2.99479167 82.363834 4.23791274 84.6226415 4.23791274 84.6226415 4.91597877 81.5925339 4.91597877"></polygon>
                                <path d="M88.2587706,5.02898978 L87.2670991,3.33382469 L86.4957989,3.33382469 L86.4957989,5.02898978 L85.7244988,5.02898978 L85.7244988,0.452044025 L87.6527491,0.452044025 C88.534235,0.452044025 89.0851636,1.01709906 89.0851636,1.8646816 C89.0851636,2.65575865 88.5893278,3.10780267 88.0383992,3.22081368 L89.1402565,5.02898978 L88.2587706,5.02898978 Z M88.3138635,1.92118711 C88.3138635,1.46914308 87.9833063,1.18661557 87.5425634,1.18661557 L86.4957989,1.18661557 L86.4957989,2.65575865 L87.5425634,2.65575865 C87.9833063,2.65575865 88.3138635,2.37323113 88.3138635,1.92118711 Z" id="Shape"></path>
                                <polygon id="Shape" points="91.399064 5.02898978 89.6360923 0.452044025 90.5175781 0.452044025 91.8398069 4.12490173 93.1620357 0.452044025 94.0435215 0.452044025 92.2805498 5.02898978"></polygon>
                                <polygon id="Shape" points="94.8699145 5.02898978 94.8699145 0.452044025 95.6412146 0.452044025 95.6412146 5.02898978"></polygon>
                                <path d="M96.6328862,2.76876965 C96.6328862,1.35613208 97.6245578,0.395538522 98.9467866,0.395538522 C99.8282724,0.395538522 100.379201,0.847582547 100.709758,1.41263758 L100.048644,1.7516706 C99.8282724,1.35613208 99.3875295,1.07360456 98.9467866,1.07360456 C98.0653007,1.07360456 97.4041863,1.7516706 97.4041863,2.71226415 C97.4041863,3.6728577 98.0653007,4.35092374 98.9467866,4.35092374 C99.4426223,4.35092374 99.8282724,4.06839623 100.048644,3.6728577 L100.709758,4.01189072 C100.379201,4.57694575 99.8282724,5.02898978 98.9467866,5.02898978 C97.6245578,5.14200079 96.6328862,4.18140723 96.6328862,2.76876965 Z" id="Shape"></path>
                                <polygon id="Shape" points="101.646337 5.02898978 101.646337 0.452044025 104.676445 0.452044025 104.676445 1.13011006 102.417637 1.13011006 102.417637 2.31672563 104.621352 2.31672563 104.621352 2.99479167 102.417637 2.99479167 102.417637 4.23791274 104.676445 4.23791274 104.676445 4.91597877 101.646337 4.91597877"></polygon>
                            </g>
                        </g>
                    </g>
                </g>
            </g>
        </g>
    </g>
</svg>